grf
version=1
nRows=40
nColumns=10
inDegrees=yes
endheader
time	ground_force_1_vx	ground_force_1_vy	ground_force_1_vz	ground_force_1_px	ground_force_1_py	ground_force_1_pz	ground_moment_1_mx	ground_moment_1_my	ground_moment_1_mz
0.630000	50.341548	450.746282	-15.590563	-0.204427	-0.000166	-0.239170	-0.000476	0.552140	0.001020
0.630667	50.823731	450.671587	-15.451641	-0.203364	-0.000166	-0.238759	-0.000475	0.550387	0.001016
0.631333	51.309164	450.562848	-15.311464	-0.201925	-0.000165	-0.238659	-0.000473	0.548540	0.001013
0.632000	51.797596	450.420100	-15.169967	-0.203005	-0.000165	-0.239038	-0.000471	0.546587	0.001009
0.632667	52.288787	450.243413	-15.027080	-0.202491	-0.000163	-0.240123	-0.000470	0.544512	0.001006
0.633333	52.782500	450.032884	-14.882724	-0.201951	-0.000163	-0.239817	-0.000468	0.542295	0.001001
0.634000	53.278496	449.788600	-14.736819	-0.202073	-0.000164	-0.239384	-0.000466	0.539915	0.000997
0.634667	53.776514	449.510608	-14.589288	-0.202497	-0.000164	-0.239387	-0.000463	0.537354	0.000992
0.635333	54.276251	449.198920	-14.440062	-0.202959	-0.000163	-0.240460	-0.000461	0.534596	0.000987
0.636000	54.777339	448.853546	-14.289081	-0.203252	-0.000160	-0.241936	-0.000459	0.531636	0.000982
0.636667	55.279359	448.474524	-14.136292	-0.202086	-0.000165	-0.238981	-0.000456	0.528473	0.000976
0.637333	55.781866	448.061940	-13.981626	-0.201157	-0.000161	-0.240608	-0.000453	0.525116	0.000970
0.638000	56.284400	447.615928	-13.824991	-0.200777	-0.000163	-0.239353	-0.000450	0.521581	0.000963
0.638667	56.786487	447.136645	-13.666281	-0.201435	-0.000163	-0.239618	-0.000447	0.517893	0.000956
0.639333	57.287641	446.624151	-13.505392	-0.201834	-0.000162	-0.240165	-0.000443	0.514080	0.000949
0.640000	57.787348	446.078326	-13.342228	-0.201496	-0.000162	-0.240379	-0.000440	0.510169	0.000942
0.640667	58.285084	445.498925	-13.176706	-0.201191	-0.000161	-0.240758	-0.000437	0.506186	0.000935
0.641333	58.780334	444.885686	-13.008751	-0.201896	-0.000160	-0.241168	-0.000433	0.502151	0.000927
0.642000	59.272607	444.238353	-12.838294	-0.201070	-0.000163	-0.239462	-0.000430	0.498083	0.000920
0.642667	59.761434	443.556670	-12.665276	-0.200677	-0.000161	-0.240441	-0.000426	0.493997	0.000912
0.643333	60.246367	442.840414	-12.489646	-0.200810	-0.000161	-0.240511	-0.000423	0.489906	0.000905
0.644000	60.726976	442.089401	-12.311352	-0.200533	-0.000160	-0.240987	-0.000419	0.485823	0.000897
0.644667	61.202849	441.303446	-12.130341	-0.200177	-0.000159	-0.241194	-0.000416	0.481757	0.000890
0.645333	61.673598	440.482325	-11.946565	-0.200391	-0.000158	-0.241613	-0.000412	0.477713	0.000882
0.646000	62.138861	439.625771	-11.759978	-0.200901	-0.000155	-0.243664	-0.000409	0.473693	0.000875
0.646667	62.598303	438.733491	-11.570527	-0.199655	-0.000158	-0.241402	-0.000405	0.469700	0.000867
0.647333	63.051621	437.805178	-11.378146	-0.200151	-0.000159	-0.241372	-0.000402	0.465734	0.000860
0.648000	63.498553	436.840523	-11.182775	-0.199731	-0.000159	-0.240665	-0.000398	0.461791	0.000853
0.648667	63.938871	435.839214	-10.984378	-0.199477	-0.000160	-0.240324	-0.000395	0.457861	0.000846
0.649333	64.372381	434.800931	-10.782948	-0.199411	-0.000159	-0.240796	-0.000392	0.453933	0.000838
0.650000	64.798914	433.725341	-10.578507	-0.199612	-0.000156	-0.242246	-0.000388	0.449991	0.000831
0.650667	65.218319	432.612100	-10.371106	-0.199924	-0.000155	-0.243362	-0.000385	0.446018	0.000824
0.651333	65.630470	431.460880	-10.160810	-0.199090	-0.000159	-0.240482	-0.000381	0.441996	0.000816
0.652000	66.035260	430.271379	-9.947697	-0.198953	-0.000157	-0.241566	-0.000378	0.437902	0.000809
0.652667	66.432611	429.043301	-9.731870	-0.198475	-0.000157	-0.241629	-0.000374	0.433709	0.000801
0.653333	66.822453	427.776346	-9.513462	-0.198821	-0.000156	-0.242187	-0.000370	0.429390	0.000793
0.654000	67.204709	426.470220	-9.292639	-0.198946	-0.000156	-0.242172	-0.000367	0.424924	0.000785
0.654667	67.579277	425.124621	-9.069584	-0.198348	-0.000157	-0.241551	-0.000363	0.420296	0.000776
0.655333	67.946049	423.739194	-8.844498	-0.197836	-0.000156	-0.241521	-0.000358	0.415493	0.000767
0.656000	68.304911	422.313516	-8.617598	-0.198578	-0.000154	-0.242908	-0.000354	0.410503	0.000758
